<svg id="_1524539" data-name="1524539" xmlns="http://www.w3.org/2000/svg" width="94.607" height="88.166" viewBox="0 0 94.607 88.166">
  <path id="Tracé_633" data-name="Tracé 633" d="M97.846,63.624h-4.77a4.7,4.7,0,0,0-4.485-3.447H83.5V47.723a1.314,1.314,0,0,0-.641-1.161L46.934,25.813a1.327,1.327,0,0,0-1.333,0L9.666,46.562A1.337,1.337,0,0,0,9,47.723v41.5a1.341,1.341,0,0,0,.67,1.161l35.938,20.749a1.341,1.341,0,0,0,.67.18,1.41,1.41,0,0,0,.689-.18l18.911-10.908v7.885A5.677,5.677,0,0,0,71.6,113.8H97.846a5.708,5.708,0,0,0,5.761-5.691V69.4a5.784,5.784,0,0,0-5.761-5.78Zm-9.207-.766A1.946,1.946,0,0,1,90.585,64.8v.13a1.946,1.946,0,0,1-1.946,1.946h-7.79A1.946,1.946,0,0,1,78.9,64.933V64.8a1.946,1.946,0,0,1,1.946-1.946ZM46.279,28.522l14.933,8.622-33.255,19.2L13.024,47.722ZM45,107.648l-33.323-19.2v-38.4L45,69.243Zm1.274-40.727-15.64-9.03,33.255-19.2,15.641,9.03Zm19.6,2.482V97.127L47.686,107.648v-38.4l33.132-19.2V60.176h.042a4.7,4.7,0,0,0-4.485,3.447H71.6A5.752,5.752,0,0,0,65.879,69.4Zm35.047,38.7a3.025,3.025,0,0,1-3.08,3.01H71.6a2.993,2.993,0,0,1-3.043-3.01V69.4A3.068,3.068,0,0,1,71.6,66.3h4.823a4.586,4.586,0,0,0,4.432,3.256h7.732A4.585,4.585,0,0,0,93.023,66.3h4.823a3.1,3.1,0,0,1,3.08,3.1Z" transform="translate(-9 -25.634)" fill="#00138e"/>
  <path id="Tracé_634" data-name="Tracé 634" d="M338.331,287h1.4a1.341,1.341,0,0,0,0-2.681h-.053v-3.639h3.7a1.291,1.291,0,0,0,1.275.905A1.344,1.344,0,0,0,346,280.249v-.9A1.358,1.358,0,0,0,344.646,278h-6.315A1.338,1.338,0,0,0,337,279.347v6.315A1.331,1.331,0,0,0,338.331,287Z" transform="translate(-274.184 -229.669)" fill="#00138e"/>
  <path id="Tracé_635" data-name="Tracé 635" d="M338.341,351h6.32A1.341,1.341,0,0,0,346,349.66v-6.32A1.341,1.341,0,0,0,344.661,342h-6.32A1.341,1.341,0,0,0,337,343.341v6.32A1.341,1.341,0,0,0,338.341,351Zm1.341-6.32h3.639v3.639h-3.639Z" transform="translate(-274.184 -281.412)" fill="#00138e"/>
  <path id="Tracé_636" data-name="Tracé 636" d="M339.734,412.32h-.053v-3.639h3.625a1.348,1.348,0,1,0,2.7,0v-1.292A1.4,1.4,0,0,0,344.646,406H338.33A1.377,1.377,0,0,0,337,407.392v6.315A1.293,1.293,0,0,0,338.33,415h1.4a1.341,1.341,0,1,0,0-2.681Z" transform="translate(-274.183 -333.155)" fill="#00138e"/>
  <path id="Tracé_637" data-name="Tracé 637" d="M361.764,284.932l-3.926,3.926-1.194-1.194a1.341,1.341,0,1,0-1.9,1.9l2.142,2.142a1.341,1.341,0,0,0,1.9,0l4.874-4.874a1.341,1.341,0,0,0-1.9-1.9Z" transform="translate(-288.215 -234.955)" fill="#00138e"/>
  <path id="Tracé_638" data-name="Tracé 638" d="M361.764,414.181l-3.926,3.926-1.194-1.194a1.341,1.341,0,1,0-1.9,1.9l2.142,2.142a1.341,1.341,0,0,0,1.9,0l4.874-4.874a1.341,1.341,0,0,0-1.9-1.9Z" transform="translate(-288.215 -339.451)" fill="#00138e"/>
  <path id="Tracé_639" data-name="Tracé 639" d="M423.652,295h-8.42a1.341,1.341,0,1,0,0,2.681h8.42a1.341,1.341,0,0,0,0-2.681Z" transform="translate(-336.349 -243.413)" fill="#00138e"/>
  <path id="Tracé_640" data-name="Tracé 640" d="M423.652,359h-8.42a1.341,1.341,0,1,0,0,2.681h8.42a1.341,1.341,0,0,0,0-2.681Z" transform="translate(-336.349 -295.156)" fill="#00138e"/>
  <path id="Tracé_641" data-name="Tracé 641" d="M423.652,423h-8.42a1.341,1.341,0,0,0,0,2.681h8.42a1.341,1.341,0,0,0,0-2.681Z" transform="translate(-336.349 -346.899)" fill="#00138e"/>
</svg>
