<svg id="_620414" data-name="620414" xmlns="http://www.w3.org/2000/svg" width="72.518" height="80.087" viewBox="0 0 72.518 80.087">
  <g id="Groupe_665" data-name="Groupe 665" transform="translate(22.631)">
    <g id="Groupe_664" data-name="Groupe 664">
      <path id="Tracé_763" data-name="Tracé 763" d="M161.345,0h0c-6.13,0-10.552,5.223-13.578,12.24,1.86.323,3.755.733,5.7,1.27,2.2-4.7,4.92-7.81,7.881-7.81,2.484,0,5.48,2.878,7.993,8,1.715-.448,3.966-1.009,5.627-1.387C171.523,4.739,166.7,0,161.345,0Z" transform="translate(-147.762)" fill="#00138e"/>
    </g>
  </g>
  <g id="Groupe_667" data-name="Groupe 667" transform="translate(0 14.35)">
    <g id="Groupe_666" data-name="Groupe 666">
      <path id="Tracé_764" data-name="Tracé 764" d="M75.615,95.881a70.651,70.651,0,0,0-1.776-9.366A35.087,35.087,0,0,1,79.283,86c4.223,0,6.938,1,8.072,2.966,1.242,2.152.105,6.258-2.934,10.8,1.394,1.355,2.743,2.758,4.006,4.224,4.841-6.754,6.545-13.271,3.882-17.884-2.434-4.226-7.273-5.827-13.027-5.827-6.786,0-14.823,2.235-21.72,5-7.775-3.291-15.249-5.01-21.377-5.01-6.5,0-11.486,1.9-13.742,5.806-2.662,4.6-.991,11.107,3.816,17.851,1.21-1.445,2.55-2.879,3.99-4.3-2.979-4.5-4.087-8.557-2.853-10.693,1.066-1.845,4.351-2.947,8.789-2.947a34.65,34.65,0,0,1,4.841.4,81.55,81.55,0,0,0-1.8,9.267C25.39,106.133,18.057,118.836,22.43,126.415c2.435,4.223,7.273,5.823,13.025,5.823a37.792,37.792,0,0,0,4.466-.313c-.667-1.769-1.269-3.635-1.793-5.6-.9.08-1.83.191-2.673.191-4.222,0-6.936-1-8.07-2.961-1.42-2.461.115-7.4,4.553-13.068a70.791,70.791,0,0,0,7.239,6.3c2.225,16.849,9.51,29.225,18.176,29.225h.01c6.733,0,11.4-6.3,14.423-14.366a41.438,41.438,0,0,0,6.77.6c6.5,0,11.484-1.9,13.739-5.805C97.654,117.178,86.574,104.411,75.615,95.881ZM35.762,106.188c.857-.862,1.767-1.727,2.749-2.6-.031.818-.048,1.612-.048,2.368,0,.967.036,1.915.067,2.866C37.553,107.954,36.641,107.077,35.762,106.188Zm40.435-2.38q1.364,1.215,2.671,2.513c-.854.858-1.738,1.7-2.682,2.545.045-.992.092-1.989.092-2.893C76.278,105.235,76.216,104.534,76.2,103.808ZM68.314,87.682c.312,1.158.6,2.362.858,3.627-.8-.511-1.588-.988-2.341-1.424-.7-.4-1.4-.761-2.1-1.141C65.921,88.356,67.12,88,68.314,87.682Zm-21.648-.127q1.764.471,3.576,1.075c-.8.419-1.61.84-2.321,1.25-.733.423-1.432.867-2.141,1.3C46.042,89.936,46.347,88.743,46.666,87.555Zm-.932,33.708c.731.452,1.422.927,2.178,1.364.684.4,1.37.743,2.055,1.115-1.133.365-2.253.681-3.386.985Q46.114,123.045,45.734,121.263Zm11.619,19.046c-2.6,0-5.746-3.243-8.208-8.465-.25-.53-.476-1.1-.709-1.667a83.291,83.291,0,0,0,8.741-2.946,71.306,71.306,0,0,0,8.985,3.135C63.826,136.252,60.747,140.309,57.352,140.309Zm29.988-16.73c-1.065,1.844-4.349,2.945-8.785,2.945-7.808,0-18.193-3.308-27.781-8.849-2.18-1.26-4.238-2.637-6.228-4.058-.248-2.5-.385-5.066-.384-7.655a69.114,69.114,0,0,1,.436-7.178c1.909-1.345,3.964-2.669,6.182-3.948a67.721,67.721,0,0,1,6.7-3.335c2.178,1,4.355,2.1,6.492,3.339A71.071,71.071,0,0,1,70.271,99c.195,2.216.308,4.534.308,6.966a69.147,69.147,0,0,1-.464,7.714c-1.968,1.4-4,2.755-6.155,4-1,.578-2.094,1.156-3.239,1.727a63.9,63.9,0,0,0,7.213,2.55c.311-.186.59-.389.9-.578-.057.261-.1.532-.16.791a45.44,45.44,0,0,0,5.567,1.144c.487-2.154.85-4.307,1.159-6.429a71.285,71.285,0,0,0,7.35-6.351C85.156,113.49,89.562,119.739,87.34,123.579Z" transform="translate(-21.169 -80.271)" fill="#00138e"/>
    </g>
  </g>
  <g id="Groupe_669" data-name="Groupe 669" transform="translate(30.47 34.321)">
    <g id="Groupe_668" data-name="Groupe 668">
      <ellipse id="Ellipse_22" data-name="Ellipse 22" cx="5.721" cy="5.721" rx="5.721" ry="5.721" fill="#00138e"/>
    </g>
  </g>
</svg>
