<svg id="_61205" data-name="61205" xmlns="http://www.w3.org/2000/svg" width="82.463" height="82.463" viewBox="0 0 82.463 82.463">
  <g id="account-circle">
    <path id="Tracé_755" data-name="Tracé 755" d="M41.231,0A41.231,41.231,0,1,0,82.463,41.231,41.353,41.353,0,0,0,41.231,0Zm0,12.369A12.149,12.149,0,0,1,53.6,24.739,12.149,12.149,0,0,1,41.231,37.108,12.149,12.149,0,0,1,28.862,24.739,12.149,12.149,0,0,1,41.231,12.369Zm0,58.549A30.08,30.08,0,0,1,16.493,57.724c0-8.246,16.493-12.782,24.739-12.782S65.97,49.478,65.97,57.724A30.081,30.081,0,0,1,41.231,70.918Z" fill="#00138e"/>
  </g>
</svg>
