<svg id="_3144422" data-name="3144422" xmlns="http://www.w3.org/2000/svg" width="79.312" height="79.39" viewBox="0 0 79.312 79.39">
  <path id="Tracé_726" data-name="Tracé 726" d="M63.806,150.75a2.393,2.393,0,0,0,3.308-.192l5.822-6.642a2.323,2.323,0,0,0-3.5-3.059l-4.266,4.867-1.143-1.034a2.323,2.323,0,1,0-3.119,3.443Z" transform="translate(-50.865 -118.361)" fill="#00138e"/>
  <path id="Tracé_727" data-name="Tracé 727" d="M182.523,182.345H169.112a2.322,2.322,0,1,0,0,4.644h13.411a2.322,2.322,0,1,0,0-4.644Z" transform="translate(-140.983 -154.091)" fill="#00138e"/>
  <path id="Tracé_728" data-name="Tracé 728" d="M91.364,244.5H61.238a2.322,2.322,0,1,0,0,4.644H91.364a2.322,2.322,0,1,0,0-4.644Z" transform="translate(-49.824 -206.616)" fill="#00138e"/>
  <path id="Tracé_729" data-name="Tracé 729" d="M63.806,322.53a2.393,2.393,0,0,0,3.308-.192l5.822-6.642a2.323,2.323,0,0,0-3.5-3.059L65.173,317.5l-1.143-1.033a2.323,2.323,0,1,0-3.119,3.443Z" transform="translate(-50.865 -263.524)" fill="#00138e"/>
  <path id="Tracé_730" data-name="Tracé 730" d="M182.523,354.07H169.112a2.322,2.322,0,1,0,0,4.644h13.411a2.322,2.322,0,1,0,0-4.644Z" transform="translate(-140.983 -299.208)" fill="#00138e"/>
  <path id="Tracé_731" data-name="Tracé 731" d="M91.364,415.337H61.238a2.322,2.322,0,1,0,0,4.644H91.364a2.322,2.322,0,1,0,0-4.644Z" transform="translate(-49.824 -350.981)" fill="#00138e"/>
  <path id="Tracé_732" data-name="Tracé 732" d="M73.893,0H29.637a4.059,4.059,0,0,0-1.422.278A7.642,7.642,0,0,0,26.775.141,7.573,7.573,0,0,0,19.609,5.27H17.125a3.317,3.317,0,0,0-3.306,3.093h-8.2A5.375,5.375,0,0,0,.251,13.729V74.024A5.375,5.375,0,0,0,5.623,79.39h42.3a5.38,5.38,0,0,0,5.186-3.968H74.284a5.763,5.763,0,0,0,5.279-5.663V5.664A5.673,5.673,0,0,0,73.893,0ZM18.456,9.914h3.08A2.323,2.323,0,0,0,23.86,7.639a2.915,2.915,0,0,1,5.83,0,2.323,2.323,0,0,0,2.324,2.275h3.08v2.557H18.456ZM48.65,74.023a.724.724,0,0,1-.723.723H5.623a.724.724,0,0,1-.723-.723V13.729a.724.724,0,0,1,.723-.723h8.185V13.5a3.621,3.621,0,0,0,3.619,3.615h18.7A3.621,3.621,0,0,0,39.742,13.5v-.493h8.185a.724.724,0,0,1,.723.723Zm26.264-4.266a1.017,1.017,0,0,1-.9,1.011l-.067.009H53.3V13.729a5.375,5.375,0,0,0-5.372-5.366h-8.2A3.347,3.347,0,0,0,36.4,5.27H33.941c-.072-.213-.157-.421-.247-.626h40.2a1.022,1.022,0,0,1,1.021,1.02Z" transform="translate(-0.251 0)" fill="#00138e"/>
</svg>
